<svg id="visual" viewBox="0 0 900 600" width="900" height="600" xmlns="http://www.w3.org/2000/svg" xmlns:xlink="http://www.w3.org/1999/xlink" version="1.1"><g stroke-width="1" stroke-linejoin="bevel"><path d="M504.9 320L496.9 261L419.1 352Z" fill="#ff4d6f" stroke="#ff4d6f"></path><path d="M419.1 352L431.1 382L504.9 320Z" fill="#ff8a97" stroke="#ff8a97"></path><path d="M358.3 196L350.3 339L419.1 352Z" fill="#ff2e63" stroke="#ff2e63"></path><path d="M419.1 352L350.3 339L431.1 382Z" fill="#f6cbcd" stroke="#f6cbcd"></path><path d="M362.1 486L453.9 406L431.1 382Z" fill="#fdabb2" stroke="#fdabb2"></path><path d="M431.1 382L453.9 406L504.9 320Z" fill="#f6cbcd" stroke="#f6cbcd"></path><path d="M496.9 261L421.1 186L419.1 352Z" fill="#f1dbdc" stroke="#f1dbdc"></path><path d="M421.1 186L358.3 196L419.1 352Z" fill="#fdabb2" stroke="#fdabb2"></path><path d="M384.1 179L358.3 196L421.1 186Z" fill="#ff647c" stroke="#ff647c"></path><path d="M504.9 320L558.7 220L496.9 261Z" fill="#fabbbf" stroke="#fabbbf"></path><path d="M496.9 261L530.7 149L421.1 186Z" fill="#ff4d6f" stroke="#ff4d6f"></path><path d="M453.9 406L497.9 433L504.9 320Z" fill="#fabbbf" stroke="#fabbbf"></path><path d="M504.9 320L605.5 327L558.7 220Z" fill="#ff7889" stroke="#ff7889"></path><path d="M612.7 342L605.5 327L504.9 320Z" fill="#f1dbdc" stroke="#f1dbdc"></path><path d="M278.5 276L280.3 293L350.3 339Z" fill="#ff7889" stroke="#ff7889"></path><path d="M529.9 106L530.7 149L631.5 192Z" fill="#f6cbcd" stroke="#f6cbcd"></path><path d="M558.7 220L530.7 149L496.9 261Z" fill="#ff9ba4" stroke="#ff9ba4"></path><path d="M421.1 186L403.1 69L384.1 179Z" fill="#eaeaea" stroke="#eaeaea"></path><path d="M358.3 196L278.5 276L350.3 339Z" fill="#f1dbdc" stroke="#f1dbdc"></path><path d="M616.7 366L612.7 342L504.9 320Z" fill="#ff8a97" stroke="#ff8a97"></path><path d="M605.5 327L631.5 192L558.7 220Z" fill="#ff2e63" stroke="#ff2e63"></path><path d="M497.9 433L616.7 366L504.9 320Z" fill="#ff2e63" stroke="#ff2e63"></path><path d="M384.1 179L320.3 141L358.3 196Z" fill="#fdabb2" stroke="#fdabb2"></path><path d="M358.3 196L255.5 199L278.5 276Z" fill="#ff7889" stroke="#ff7889"></path><path d="M403.1 69L320.3 141L384.1 179Z" fill="#eaeaea" stroke="#eaeaea"></path><path d="M616.7 366L643.5 348L612.7 342Z" fill="#ff647c" stroke="#ff647c"></path><path d="M612.7 342L643.5 348L605.5 327Z" fill="#f6cbcd" stroke="#f6cbcd"></path><path d="M302.3 449L431.1 382L350.3 339Z" fill="#fabbbf" stroke="#fabbbf"></path><path d="M302.3 449L362.1 486L431.1 382Z" fill="#ff9ba4" stroke="#ff9ba4"></path><path d="M453.9 406L430.1 527L497.9 433Z" fill="#eaeaea" stroke="#eaeaea"></path><path d="M430.1 527L513.9 495L497.9 433Z" fill="#ff4d6f" stroke="#ff4d6f"></path><path d="M497.9 433L594.7 483L616.7 366Z" fill="#ff8a97" stroke="#ff8a97"></path><path d="M616.7 366L729.4 436L643.5 348Z" fill="#ff7889" stroke="#ff7889"></path><path d="M631.5 192L530.7 149L558.7 220Z" fill="#f6cbcd" stroke="#f6cbcd"></path><path d="M530.7 149L529.9 106L421.1 186Z" fill="#ff4d6f" stroke="#ff4d6f"></path><path d="M216.5 348L302.3 449L350.3 339Z" fill="#ff8a97" stroke="#ff8a97"></path><path d="M732.4 270L631.5 192L605.5 327Z" fill="#ff4d6f" stroke="#ff4d6f"></path><path d="M278.5 276L216.5 348L280.3 293Z" fill="#ff8a97" stroke="#ff8a97"></path><path d="M280.3 293L216.5 348L350.3 339Z" fill="#ff8a97" stroke="#ff8a97"></path><path d="M320.3 141L255.5 199L358.3 196Z" fill="#ff9ba4" stroke="#ff9ba4"></path><path d="M403.1 69L299.3 125L320.3 141Z" fill="#ff8a97" stroke="#ff8a97"></path><path d="M320.3 141L299.3 125L255.5 199Z" fill="#ff7889" stroke="#ff7889"></path><path d="M362.1 486L430.1 527L453.9 406Z" fill="#fdabb2" stroke="#fdabb2"></path><path d="M529.9 106L403.1 69L421.1 186Z" fill="#ff7889" stroke="#ff7889"></path><path d="M610.7 516L594.7 483L513.9 495Z" fill="#eaeaea" stroke="#eaeaea"></path><path d="M513.9 495L594.7 483L497.9 433Z" fill="#ff647c" stroke="#ff647c"></path><path d="M180.6 338L216.5 348L278.5 276Z" fill="#ff4d6f" stroke="#ff4d6f"></path><path d="M302.3 449L344.3 512L362.1 486Z" fill="#ff2e63" stroke="#ff2e63"></path><path d="M362.1 486L344.3 512L430.1 527Z" fill="#ff647c" stroke="#ff647c"></path><path d="M274.5 475L344.3 512L302.3 449Z" fill="#f6cbcd" stroke="#f6cbcd"></path><path d="M194.5 448L274.5 475L302.3 449Z" fill="#ff647c" stroke="#ff647c"></path><path d="M226.5 84L208.5 197L255.5 199Z" fill="#ff7889" stroke="#ff7889"></path><path d="M255.5 199L208.5 197L278.5 276Z" fill="#fdabb2" stroke="#fdabb2"></path><path d="M208.5 197L180.6 338L278.5 276Z" fill="#ff2e63" stroke="#ff2e63"></path><path d="M216.5 348L194.5 448L302.3 449Z" fill="#ff7889" stroke="#ff7889"></path><path d="M559.7 600L610.7 516L513.9 495Z" fill="#ff7889" stroke="#ff7889"></path><path d="M594.7 483L642.5 496L616.7 366Z" fill="#ff9ba4" stroke="#ff9ba4"></path><path d="M529.9 106L463.9 23L403.1 69Z" fill="#ff2e63" stroke="#ff2e63"></path><path d="M297.5 0L226.5 84L299.3 125Z" fill="#ff7889" stroke="#ff7889"></path><path d="M459.1 0L463.9 23L489.9 0Z" fill="#ff4d6f" stroke="#ff4d6f"></path><path d="M610.7 516L642.5 496L594.7 483Z" fill="#fabbbf" stroke="#fabbbf"></path><path d="M746.4 291L732.4 270L643.5 348Z" fill="#f1dbdc" stroke="#f1dbdc"></path><path d="M643.5 348L732.4 270L605.5 327Z" fill="#ff647c" stroke="#ff647c"></path><path d="M489.9 0L463.9 23L529.9 106Z" fill="#ff8a97" stroke="#ff8a97"></path><path d="M610.7 516L650.5 501L642.5 496Z" fill="#f1dbdc" stroke="#f1dbdc"></path><path d="M729.4 436L751.4 360L643.5 348Z" fill="#ff9ba4" stroke="#ff9ba4"></path><path d="M180.6 338L194.5 448L216.5 348Z" fill="#ff7889" stroke="#ff7889"></path><path d="M298.3 600L371.1 600L344.3 512Z" fill="#ff4d6f" stroke="#ff4d6f"></path><path d="M489.9 0L529.9 106L602.7 33Z" fill="#ff7889" stroke="#ff7889"></path><path d="M463.9 23L459.1 0L403.1 69Z" fill="#ff2e63" stroke="#ff2e63"></path><path d="M751.4 360L746.4 291L643.5 348Z" fill="#fabbbf" stroke="#fabbbf"></path><path d="M602.7 33L529.9 106L691.5 111Z" fill="#ff647c" stroke="#ff647c"></path><path d="M430.1 527L478.9 600L513.9 495Z" fill="#ff4d6f" stroke="#ff4d6f"></path><path d="M669.5 600L723.4 543L650.5 501Z" fill="#f1dbdc" stroke="#f1dbdc"></path><path d="M371.1 600L478.9 600L430.1 527Z" fill="#ff8a97" stroke="#ff8a97"></path><path d="M371.1 600L430.1 527L344.3 512Z" fill="#fdabb2" stroke="#fdabb2"></path><path d="M691.5 111L529.9 106L631.5 192Z" fill="#ff2e63" stroke="#ff2e63"></path><path d="M691.5 111L631.5 192L756.4 190Z" fill="#fabbbf" stroke="#fabbbf"></path><path d="M756.4 190L631.5 192L732.4 270Z" fill="#ff4d6f" stroke="#ff4d6f"></path><path d="M324.3 0L299.3 125L403.1 69Z" fill="#ff8a97" stroke="#ff8a97"></path><path d="M299.3 125L226.5 84L255.5 199Z" fill="#f6cbcd" stroke="#f6cbcd"></path><path d="M208.5 197L122.6 319L180.6 338Z" fill="#ff647c" stroke="#ff647c"></path><path d="M170.6 536L196.6 477L84.8 516Z" fill="#fabbbf" stroke="#fabbbf"></path><path d="M194.5 448L196.6 477L274.5 475Z" fill="#ff4d6f" stroke="#ff4d6f"></path><path d="M729.4 436L616.7 366L642.5 496Z" fill="#eaeaea" stroke="#eaeaea"></path><path d="M298.3 600L344.3 512L274.5 475Z" fill="#f6cbcd" stroke="#f6cbcd"></path><path d="M650.5 501L729.4 436L642.5 496Z" fill="#ff9ba4" stroke="#ff9ba4"></path><path d="M145.6 141L151.6 190L208.5 197Z" fill="#eaeaea" stroke="#eaeaea"></path><path d="M180.6 338L74.8 402L194.5 448Z" fill="#eaeaea" stroke="#eaeaea"></path><path d="M459.1 0L324.3 0L403.1 69Z" fill="#f1dbdc" stroke="#f1dbdc"></path><path d="M478.9 600L559.7 600L513.9 495Z" fill="#eaeaea" stroke="#eaeaea"></path><path d="M770.2 556L776.2 425L729.4 436Z" fill="#ff8a97" stroke="#ff8a97"></path><path d="M151.6 190L122.6 319L208.5 197Z" fill="#ff7889" stroke="#ff7889"></path><path d="M751.4 360L772.2 259L746.4 291Z" fill="#eaeaea" stroke="#eaeaea"></path><path d="M746.4 291L772.2 259L732.4 270Z" fill="#ff9ba4" stroke="#ff9ba4"></path><path d="M772.2 259L756.4 190L732.4 270Z" fill="#ff8a97" stroke="#ff8a97"></path><path d="M324.3 0L297.5 0L299.3 125Z" fill="#ff7889" stroke="#ff7889"></path><path d="M205.5 600L298.3 600L274.5 475Z" fill="#ff647c" stroke="#ff647c"></path><path d="M180.6 0L172.6 100L226.5 84Z" fill="#eaeaea" stroke="#eaeaea"></path><path d="M226.5 84L172.6 100L208.5 197Z" fill="#ff9ba4" stroke="#ff9ba4"></path><path d="M172.6 100L145.6 141L208.5 197Z" fill="#f6cbcd" stroke="#f6cbcd"></path><path d="M151.6 190L91.8 288L122.6 319Z" fill="#f6cbcd" stroke="#f6cbcd"></path><path d="M666.5 34L616.7 0L602.7 33Z" fill="#ff4d6f" stroke="#ff4d6f"></path><path d="M602.7 33L616.7 0L489.9 0Z" fill="#f1dbdc" stroke="#f1dbdc"></path><path d="M666.5 34L602.7 33L691.5 111Z" fill="#f6cbcd" stroke="#f6cbcd"></path><path d="M756.4 87L666.5 34L691.5 111Z" fill="#ff9ba4" stroke="#ff9ba4"></path><path d="M723.4 543L729.4 436L650.5 501Z" fill="#ff9ba4" stroke="#ff9ba4"></path><path d="M729.4 436L776.2 425L751.4 360Z" fill="#ff4d6f" stroke="#ff4d6f"></path><path d="M900 274L861.2 204L772.2 259Z" fill="#eaeaea" stroke="#eaeaea"></path><path d="M77.8 203L91.8 288L151.6 190Z" fill="#fabbbf" stroke="#fabbbf"></path><path d="M84.8 516L196.6 477L194.5 448Z" fill="#eaeaea" stroke="#eaeaea"></path><path d="M74.8 402L180.6 338L122.6 319Z" fill="#fdabb2" stroke="#fdabb2"></path><path d="M196.6 477L170.6 536L274.5 475Z" fill="#fabbbf" stroke="#fabbbf"></path><path d="M669.5 600L650.5 501L610.7 516Z" fill="#ff647c" stroke="#ff647c"></path><path d="M813.2 133L756.4 87L756.4 190Z" fill="#fabbbf" stroke="#fabbbf"></path><path d="M756.4 190L756.4 87L691.5 111Z" fill="#eaeaea" stroke="#eaeaea"></path><path d="M666.5 34L675.5 0L616.7 0Z" fill="#fabbbf" stroke="#fabbbf"></path><path d="M764.4 0L675.5 0L666.5 34Z" fill="#ff7889" stroke="#ff7889"></path><path d="M559.7 600L669.5 600L610.7 516Z" fill="#ff7889" stroke="#ff7889"></path><path d="M145.6 141L77.8 203L151.6 190Z" fill="#fdabb2" stroke="#fdabb2"></path><path d="M105.8 60L77.8 203L145.6 141Z" fill="#fdabb2" stroke="#fdabb2"></path><path d="M669.5 600L685.4 600L723.4 543Z" fill="#f1dbdc" stroke="#f1dbdc"></path><path d="M57.8 259L74.8 402L91.8 288Z" fill="#ff8a97" stroke="#ff8a97"></path><path d="M91.8 288L74.8 402L122.6 319Z" fill="#ff2e63" stroke="#ff2e63"></path><path d="M151.6 600L205.5 600L170.6 536Z" fill="#ff647c" stroke="#ff647c"></path><path d="M170.6 536L205.5 600L274.5 475Z" fill="#ff8a97" stroke="#ff8a97"></path><path d="M77.8 203L57.8 259L91.8 288Z" fill="#ff8a97" stroke="#ff8a97"></path><path d="M297.5 0L180.6 0L226.5 84Z" fill="#ff2e63" stroke="#ff2e63"></path><path d="M172.6 100L105.8 60L145.6 141Z" fill="#ff4d6f" stroke="#ff4d6f"></path><path d="M861.2 204L813.2 133L756.4 190Z" fill="#f6cbcd" stroke="#f6cbcd"></path><path d="M756.4 87L764.4 0L666.5 34Z" fill="#ff7889" stroke="#ff7889"></path><path d="M861.2 204L756.4 190L772.2 259Z" fill="#fabbbf" stroke="#fabbbf"></path><path d="M723.4 543L770.2 556L729.4 436Z" fill="#ff9ba4" stroke="#ff9ba4"></path><path d="M900 274L772.2 259L751.4 360Z" fill="#f1dbdc" stroke="#f1dbdc"></path><path d="M772.2 600L770.2 556L723.4 543Z" fill="#ff2e63" stroke="#ff2e63"></path><path d="M135.8 0L105.8 60L172.6 100Z" fill="#fabbbf" stroke="#fabbbf"></path><path d="M0 202L0 247L57.8 259Z" fill="#f6cbcd" stroke="#f6cbcd"></path><path d="M84.8 516L151.6 600L170.6 536Z" fill="#eaeaea" stroke="#eaeaea"></path><path d="M74.8 402L84.8 516L194.5 448Z" fill="#fabbbf" stroke="#fabbbf"></path><path d="M48.8 497L84.8 516L74.8 402Z" fill="#ff7889" stroke="#ff7889"></path><path d="M853.2 426L751.4 360L776.2 425Z" fill="#ff647c" stroke="#ff647c"></path><path d="M770.2 556L853.2 426L776.2 425Z" fill="#f1dbdc" stroke="#f1dbdc"></path><path d="M180.6 0L135.8 0L172.6 100Z" fill="#ff7889" stroke="#ff7889"></path><path d="M817.2 37L756.4 87L813.2 133Z" fill="#fdabb2" stroke="#fdabb2"></path><path d="M817.2 37L764.4 0L756.4 87Z" fill="#fabbbf" stroke="#fabbbf"></path><path d="M685.4 600L772.2 600L723.4 543Z" fill="#f1dbdc" stroke="#f1dbdc"></path><path d="M900 560L900 452L853.2 426Z" fill="#ff2e63" stroke="#ff2e63"></path><path d="M0 423L48.8 497L74.8 402Z" fill="#ff2e63" stroke="#ff2e63"></path><path d="M84.8 516L64.8 600L151.6 600Z" fill="#f1dbdc" stroke="#f1dbdc"></path><path d="M0 202L57.8 259L77.8 203Z" fill="#ff2e63" stroke="#ff2e63"></path><path d="M57.8 259L0 422L74.8 402Z" fill="#f6cbcd" stroke="#f6cbcd"></path><path d="M0 202L77.8 203L0 173Z" fill="#ff9ba4" stroke="#ff9ba4"></path><path d="M900 85L817.2 37L813.2 133Z" fill="#f1dbdc" stroke="#f1dbdc"></path><path d="M900 373L900 274L751.4 360Z" fill="#fabbbf" stroke="#fabbbf"></path><path d="M861.2 204L900 158L813.2 133Z" fill="#ff2e63" stroke="#ff2e63"></path><path d="M900 274L900 235L861.2 204Z" fill="#ff4d6f" stroke="#ff4d6f"></path><path d="M0 173L77.8 203L105.8 60Z" fill="#f1dbdc" stroke="#f1dbdc"></path><path d="M853.2 426L900 373L751.4 360Z" fill="#fabbbf" stroke="#fabbbf"></path><path d="M900 452L900 373L853.2 426Z" fill="#f1dbdc" stroke="#f1dbdc"></path><path d="M817.2 37L797.2 0L764.4 0Z" fill="#ff7889" stroke="#ff7889"></path><path d="M0 247L0 422L57.8 259Z" fill="#ff8a97" stroke="#ff8a97"></path><path d="M0 42L0 173L105.8 60Z" fill="#eaeaea" stroke="#eaeaea"></path><path d="M0 422L0 423L74.8 402Z" fill="#fdabb2" stroke="#fdabb2"></path><path d="M900 235L900 158L861.2 204Z" fill="#ff8a97" stroke="#ff8a97"></path><path d="M817.2 37L900 0L797.2 0Z" fill="#ff4d6f" stroke="#ff4d6f"></path><path d="M900 560L853.2 426L770.2 556Z" fill="#ff2e63" stroke="#ff2e63"></path><path d="M0 561L84.8 516L48.8 497Z" fill="#ff8a97" stroke="#ff8a97"></path><path d="M0 561L64.8 600L84.8 516Z" fill="#f6cbcd" stroke="#f6cbcd"></path><path d="M900 158L900 85L813.2 133Z" fill="#ff9ba4" stroke="#ff9ba4"></path><path d="M0 0L0 42L105.8 60Z" fill="#eaeaea" stroke="#eaeaea"></path><path d="M0 423L0 561L48.8 497Z" fill="#f1dbdc" stroke="#f1dbdc"></path><path d="M772.2 600L900 560L770.2 556Z" fill="#fdabb2" stroke="#fdabb2"></path><path d="M135.8 0L0 0L105.8 60Z" fill="#fabbbf" stroke="#fabbbf"></path><path d="M0 561L0 600L64.8 600Z" fill="#ff2e63" stroke="#ff2e63"></path><path d="M900 85L900 0L817.2 37Z" fill="#ff7889" stroke="#ff7889"></path><path d="M772.2 600L900 600L900 560Z" fill="#ff2e63" stroke="#ff2e63"></path></g></svg>