<svg width="48" height="48" viewBox="0 0 48 48" fill="none" xmlns="http://www.w3.org/2000/svg">
<path d="M21 44V30H17V17.35C17 16.525 17.2938 15.8188 17.8813 15.2312C18.4688 14.6438 19.175 14.35 20 14.35H28C28.825 14.35 29.5312 14.6438 30.1188 15.2312C30.7063 15.8188 31 16.525 31 17.35V30H27V44H21ZM24.004 11.3C23.0013 11.3 22.1417 10.943 21.425 10.229C20.7083 9.51497 20.35 8.65663 20.35 7.654C20.35 6.65133 20.707 5.79167 21.421 5.075C22.135 4.35833 22.9934 4 23.996 4C24.9987 4 25.8583 4.357 26.575 5.071C27.2917 5.78503 27.65 6.64337 27.65 7.646C27.65 8.64867 27.293 9.50833 26.579 10.225C25.865 10.9417 25.0066 11.3 24.004 11.3Z" fill="white"/>
</svg>
