<svg width="48" height="48" viewBox="0 0 48 48" fill="none" xmlns="http://www.w3.org/2000/svg">
<path d="M21 44V33H15L20.1 16.6C20.3667 15.7667 20.8667 15.125 21.6 14.675C22.3333 14.225 23.1333 14 24 14C24.8667 14 25.6667 14.225 26.4 14.675C27.1333 15.125 27.6333 15.7667 27.9 16.6L33 33H27V44H21ZM24.004 11.3C23.0013 11.3 22.1417 10.943 21.425 10.229C20.7083 9.51497 20.35 8.65663 20.35 7.654C20.35 6.65133 20.707 5.79167 21.421 5.075C22.135 4.35833 22.9934 4 23.996 4C24.9987 4 25.8583 4.357 26.575 5.071C27.2917 5.78503 27.65 6.64337 27.65 7.646C27.65 8.64867 27.293 9.50833 26.579 10.225C25.865 10.9417 25.0066 11.3 24.004 11.3Z" fill="white"/>
</svg>
